<?xml version="1.0" standalone="no"?>
<!DOCTYPE svg PUBLIC "-//W3C//DTD SVG 20010904//EN"
 "http://www.w3.org/TR/2001/REC-SVG-20010904/DTD/svg10.dtd">
<svg version="1.0" xmlns="http://www.w3.org/2000/svg"
 width="301.000000pt" height="301.000000pt" viewBox="0 0 301.000000 301.000000"
 preserveAspectRatio="xMidYMid meet">
<metadata>
Created by potrace 1.14, written by Peter Selinger 2001-2017
</metadata>
<g transform="translate(0.000000,301.000000) scale(0.100000,-0.100000)"
fill="#000000" stroke="none">
<path d="M1375 3004 c-688 -74 -1222 -562 -1351 -1234 -27 -142 -25 -390 4
-538 91 -456 362 -832 757 -1047 250 -137 565 -203 839 -176 366 35 675 180
931 436 199 199 325 418 394 687 108 419 33 854 -211 1219 -84 126 -273 315
-397 398 -179 118 -384 201 -581 235 -96 17 -311 28 -385 20z m282 -1160 c283
-137 274 -537 -15 -672 -50 -23 -69 -27 -152 -27 -83 1 -102 4 -152 28 -79 38
-143 104 -181 185 -29 60 -32 77 -32 157 0 82 3 97 33 157 94 192 307 265 499
172z m-692 -481 c42 -146 147 -273 278 -338 215 -106 448 -75 618 82 77 71
121 139 153 235 l25 73 387 3 387 2 -7 -62 c-58 -521 -436 -973 -932 -1112
-159 -45 -204 -50 -374 -50 -177 0 -259 12 -407 61 -460 149 -804 547 -888
1027 -24 138 -35 125 113 129 70 1 240 4 379 5 l252 2 16 -57z"/>
<path d="M1470 1700 c-56 -10 -98 -38 -128 -82 -23 -35 -27 -52 -27 -108 0
-54 5 -73 24 -102 75 -109 230 -118 314 -18 25 29 47 86 47 120 0 37 -24 93
-52 126 -50 56 -108 78 -178 64z"/>
</g>
</svg>
